<svg id="Layer_1" xmlns="http://www.w3.org/2000/svg" width="364" height="64"><path d="M92.5 29.6h12.3V45c-3.3 1.1-7 1.7-11 1.7-4.4 0-7.8-1.3-10.2-3.8S80 36.7 80 32c0-4.6 1.3-8.2 3.9-10.8 2.6-2.6 6.3-3.8 11.1-3.8 1.8 0 3.5.2 5.1.5 1.6.3 3 .8 4.2 1.3l-2.4 6.1c-2.1-1-4.3-1.5-6.8-1.5-2.3 0-4 .7-5.2 2.2S88 29.4 88 32.1c0 2.7.6 4.7 1.7 6.1s2.7 2.1 4.8 2.1c1.1 0 2.2-.1 3.2-.3v-4.5h-5.1v-5.9zm33.6 16.7h-17V17.8h17V24h-9.2v4.5h8.6v6.2h-8.6V40h9.2v6.3zm31.1 0H147l-10.4-20.1h-.2c.2 3.2.4 5.6.4 7.2v12.9H130V17.8h10l10.4 19.8h.1c-.2-2.9-.3-5.2-.3-6.9V17.8h6.9v28.5zm21.5 0h-17V17.8h17V24h-9.2v4.5h8.6v6.2h-8.6V40h9.2v6.3zm11.6-10.4v10.4h-7.7V17.8h9.4c7.8 0 11.6 2.8 11.6 8.4 0 3.3-1.6 5.9-4.8 7.7l8.3 12.4h-8.8l-6.1-10.4h-1.9zm0-5.8h1.4c2.7 0 4-1.2 4-3.6 0-2-1.3-2.9-4-2.9h-1.5v6.5zm19.3 16.2V17.8h7.8v28.6h-7.8zm26.1-22.6c-1.8 0-3.3.8-4.3 2.3-1 1.5-1.5 3.6-1.5 6.2 0 5.5 2.1 8.2 6.3 8.2 1.3 0 2.5-.2 3.7-.5 1.2-.4 2.4-.8 3.6-1.3v6.5c-2.4 1.1-5.1 1.6-8.1 1.6-4.3 0-7.6-1.2-9.9-3.8-2.3-2.5-3.4-6.1-3.4-10.8 0-3 .6-5.6 1.7-7.8s2.7-4 4.8-5.2 4.5-1.8 7.4-1.8c3.1 0 6 .7 8.8 2l-2.4 6.1c-1.1-.5-2.1-.9-3.2-1.2s-2.3-.5-3.5-.5zM258 46.3V17.8h7.7v22.3h11v6.2H258zm47.6-14.2c0 4.8-1.2 8.4-3.5 10.9s-5.8 3.7-10.3 3.7c-4.4 0-7.8-1.2-10.2-3.7-2.4-2.5-3.6-6.1-3.6-10.9 0-4.7 1.2-8.3 3.5-10.8 2.4-2.5 5.8-3.7 10.3-3.7 4.5 0 7.9 1.2 10.2 3.7s3.6 6 3.6 10.8zm-19.5 0c0 5.5 1.9 8.2 5.7 8.2 1.9 0 3.4-.7 4.3-2 .9-1.3 1.4-3.4 1.4-6.2 0-2.8-.5-4.9-1.4-6.3-.9-1.3-2.4-2-4.2-2-3.9 0-5.8 2.8-5.8 8.3zm35.2-2.4h12.2V45c-3.3 1.1-7 1.7-10.9 1.7-4.4 0-7.7-1.3-10.1-3.8-2.4-2.5-3.6-6.1-3.6-10.8 0-4.6 1.3-8.1 3.9-10.7 2.6-2.5 6.3-3.8 11-3.8 1.8 0 3.5.2 5 .5 1.6.3 3 .8 4.1 1.3l-2.4 6c-2-1-4.3-1.5-6.7-1.5-2.2 0-4 .7-5.2 2.2s-1.8 3.5-1.8 6.2c0 2.6.6 4.7 1.7 6 1.1 1.4 2.7 2.1 4.8 2.1 1.1 0 2.2-.1 3.1-.3v-4.4h-5.1v-6zm42.7 2.4c0 4.8-1.2 8.4-3.5 10.9s-5.8 3.7-10.3 3.7c-4.4 0-7.8-1.2-10.2-3.7-2.4-2.5-3.6-6.1-3.6-10.9 0-4.7 1.2-8.3 3.5-10.8 2.4-2.5 5.8-3.7 10.3-3.7 4.5 0 7.9 1.2 10.2 3.7 2.4 2.4 3.6 6 3.6 10.8zm-19.5 0c0 5.5 1.9 8.2 5.7 8.2 1.9 0 3.4-.7 4.3-2 .9-1.3 1.4-3.4 1.4-6.2 0-2.8-.5-4.9-1.4-6.3-.9-1.3-2.4-2-4.2-2-3.9 0-5.8 2.8-5.8 8.3zM32 48c-8.8 0-16-7.2-16-16s7.2-16 16-16 16 7.2 16 16h16C64 14.3 49.7 0 32 0S0 14.3 0 32s14.3 32 32 32c11.8 0 22.1-6.4 27.7-16H32z" fill="#0071BC"/></svg>