<?xml version="1.0" encoding="utf-8"?>
<!-- Generator: Adobe Illustrator 21.1.0, SVG Export Plug-In . SVG Version: 6.00 Build 0)  -->
<svg version="1.1" id="Layer_1" xmlns="http://www.w3.org/2000/svg" xmlns:xlink="http://www.w3.org/1999/xlink" x="0px" y="0px"
	 width="364px" height="64px" viewBox="0 0 364 64" enable-background="new 0 0 364 64" xml:space="preserve">
<g>
	<path fill="#0071BC" d="M92.5,29.6h12.3V45c-3.3,1.1-7,1.7-11,1.7c-4.4,0-7.8-1.3-10.2-3.8S80,36.7,80,32c0-4.6,1.3-8.2,3.9-10.8
		c2.6-2.6,6.3-3.8,11.1-3.8c1.8,0,3.5,0.2,5.1,0.5c1.6,0.3,3,0.8,4.2,1.3l-2.4,6.1c-2.1-1-4.3-1.5-6.8-1.5c-2.3,0-4,0.7-5.2,2.2
		S88,29.4,88,32.1c0,2.7,0.6,4.7,1.7,6.1s2.7,2.1,4.8,2.1c1.1,0,2.2-0.1,3.2-0.3v-4.5h-5.1V29.6z"/>
	<path fill="#0071BC" d="M126.1,46.3h-17V17.8h17v6.2h-9.2v4.5h8.6v6.2h-8.6V40h9.2V46.3z"/>
	<path fill="#0071BC" d="M157.2,46.3H147l-10.4-20.1h-0.2c0.2,3.2,0.4,5.6,0.4,7.2v12.9H130V17.8H140l10.4,19.8h0.1
		c-0.2-2.9-0.3-5.2-0.3-6.9V17.8h6.9V46.3z"/>
	<path fill="#0071BC" d="M178.7,46.3h-17V17.8h17v6.2h-9.2v4.5h8.6v6.2h-8.6V40h9.2V46.3z"/>
	<path fill="#0071BC" d="M190.3,35.9v10.4h-7.7V17.8h9.4c7.8,0,11.6,2.8,11.6,8.4c0,3.3-1.6,5.9-4.8,7.7l8.3,12.4h-8.8l-6.1-10.4
		H190.3z M190.3,30.1h1.4c2.7,0,4-1.2,4-3.6c0-2-1.3-2.9-4-2.9h-1.5V30.1z"/>
	<path fill="#0071BC" d="M209.6,46.3V17.8h7.8v28.6H209.6z"/>
	<path fill="#0071BC" d="M235.7,23.7c-1.8,0-3.3,0.8-4.3,2.3c-1,1.5-1.5,3.6-1.5,6.2c0,5.5,2.1,8.2,6.3,8.2c1.3,0,2.5-0.2,3.7-0.5
		c1.2-0.4,2.4-0.8,3.6-1.3v6.5c-2.4,1.1-5.1,1.6-8.1,1.6c-4.3,0-7.6-1.2-9.9-3.8c-2.3-2.5-3.4-6.1-3.4-10.8c0-3,0.6-5.6,1.7-7.8
		s2.7-4,4.8-5.2s4.5-1.8,7.4-1.8c3.1,0,6,0.7,8.8,2l-2.4,6.1c-1.1-0.5-2.1-0.9-3.2-1.2S236.9,23.7,235.7,23.7z"/>
	<path fill="#0071BC" d="M258,46.3V17.8h7.7v22.3h11v6.2H258z"/>
	<path fill="#0071BC" d="M305.6,32.1c0,4.8-1.2,8.4-3.5,10.9c-2.3,2.5-5.8,3.7-10.3,3.7c-4.4,0-7.8-1.2-10.2-3.7
		c-2.4-2.5-3.6-6.1-3.6-10.9c0-4.7,1.2-8.3,3.5-10.8c2.4-2.5,5.8-3.7,10.3-3.7c4.5,0,7.9,1.2,10.2,3.7S305.6,27.3,305.6,32.1z
		 M286.1,32.1c0,5.5,1.9,8.2,5.7,8.2c1.9,0,3.4-0.7,4.3-2c0.9-1.3,1.4-3.4,1.4-6.2c0-2.8-0.5-4.9-1.4-6.3c-0.9-1.3-2.4-2-4.2-2
		C288,23.8,286.1,26.6,286.1,32.1z"/>
	<path fill="#0071BC" d="M321.3,29.7h12.2V45c-3.3,1.1-7,1.7-10.9,1.7c-4.4,0-7.7-1.3-10.1-3.8c-2.4-2.5-3.6-6.1-3.6-10.8
		c0-4.6,1.3-8.1,3.9-10.7c2.6-2.5,6.3-3.8,11-3.8c1.8,0,3.5,0.2,5,0.5c1.6,0.3,3,0.8,4.1,1.3l-2.4,6c-2-1-4.3-1.5-6.7-1.5
		c-2.2,0-4,0.7-5.2,2.2s-1.8,3.5-1.8,6.2c0,2.6,0.6,4.7,1.7,6c1.1,1.4,2.7,2.1,4.8,2.1c1.1,0,2.2-0.1,3.1-0.3v-4.4h-5.1V29.7z"/>
	<path fill="#0071BC" d="M364,32.1c0,4.8-1.2,8.4-3.5,10.9c-2.3,2.5-5.8,3.7-10.3,3.7c-4.4,0-7.8-1.2-10.2-3.7
		c-2.4-2.5-3.6-6.1-3.6-10.9c0-4.7,1.2-8.3,3.5-10.8c2.4-2.5,5.8-3.7,10.3-3.7c4.5,0,7.9,1.2,10.2,3.7C362.8,23.7,364,27.3,364,32.1
		z M344.5,32.1c0,5.5,1.9,8.2,5.7,8.2c1.9,0,3.4-0.7,4.3-2c0.9-1.3,1.4-3.4,1.4-6.2c0-2.8-0.5-4.9-1.4-6.3c-0.9-1.3-2.4-2-4.2-2
		C346.4,23.8,344.5,26.6,344.5,32.1z"/>
	<path fill="#0071BC" d="M32,48c-8.8,0-16-7.2-16-16s7.2-16,16-16s16,7.2,16,16h16C64,14.3,49.7,0,32,0S0,14.3,0,32s14.3,32,32,32
		c11.8,0,22.1-6.4,27.7-16H32z"/>
</g>
</svg>
